<svg width="141" height="83" viewBox="0 0 141 83" fill="none" xmlns="http://www.w3.org/2000/svg">
<g filter="url(#filter0_b_670_1122)">
<rect x="0.117188" y="16.3455" width="133" height="67" rx="16" transform="rotate(-6.80037 0.117188 16.3455)" fill="#160328"/>
<rect x="0.672875" y="16.7827" width="132" height="66" rx="15.5" transform="rotate(-6.80037 0.672875 16.7827)" stroke="#0A0D14" stroke-opacity="0.39"/>
<path d="M31.5727 61.9415L31.0846 57.8484L40.9527 46.9028C43.7022 43.8074 45.3595 41.7716 45.0074 38.8189C44.6286 35.6422 42.3339 33.8918 39.0554 34.2828C35.5121 34.7053 33.6784 37.3404 34.1422 41.2298L29.1532 41.8248C28.3882 35.4102 32.03 30.6182 38.526 29.8435C44.574 29.1223 49.3558 32.3316 50.0284 37.9723C50.5214 42.1061 48.5016 45.259 44.6338 49.5411L38.3694 56.5873L38.3742 56.6281L52.2011 54.9792L52.7304 59.4185L31.5727 61.9415ZM52.786 52.5137L52.2809 48.2781L63.7243 27.3343L69.1817 26.6835L57.9047 47.4629L57.9095 47.5036L67.5211 46.3574L66.5935 38.5786L71.6436 37.9763L72.5713 45.7552L76.8272 45.2477L77.3445 49.5851L73.0885 50.0926L73.8996 56.8941L68.8494 57.4963L68.0383 50.6949L52.786 52.5137ZM88.7757 22.9012L83.3334 60.3954L78.7923 60.9369L84.2347 23.4428L88.7757 22.9012ZM94.5303 54.4339L104.491 27.1199L104.489 27.0995L89.3585 28.9038L88.8146 24.3423L109.382 21.8897L109.928 26.4715L100.049 53.7758L94.5303 54.4339Z" fill="#FFEB61"/>
</g>
<defs>
<filter id="filter0_b_670_1122" x="-9.88281" y="-9.40308" width="159.996" height="102.277" filterUnits="userSpaceOnUse" color-interpolation-filters="sRGB">
<feFlood flood-opacity="0" result="BackgroundImageFix"/>
<feGaussianBlur in="BackgroundImageFix" stdDeviation="5"/>
<feComposite in2="SourceAlpha" operator="in" result="effect1_backgroundBlur_670_1122"/>
<feBlend mode="normal" in="SourceGraphic" in2="effect1_backgroundBlur_670_1122" result="shape"/>
</filter>
</defs>
</svg>
