<svg class="navbar-logo" xmlns="http://www.w3.org/2000/svg" viewBox="0 0 620 402"><path d="M155 159v10l4.1.6c4.7.8 11.6 5.2 13.5 8.5 1.8 3.2 1.7 8.4-.1 11.9-1.8 3.4-8.4 7.5-13.7 8.4l-3.8.7V219h4.1c5.8 0 15.2-2.6 22.2-6.1 21.3-10.8 26.2-34.4 10.3-50.2-7.8-7.8-21.8-13.6-32.8-13.7H155v10zM327.6 157.6c-1 1-1.6 3.2-1.5 6.2l.1 4.7 1.4-3.2c2-4.7 5-6.3 11.6-6.3h5.8v50h7v-50h9.5c7.8 0 9.5-.3 9.5-1.5 0-2.3-41.1-2.2-43.4.1zM405.7 156.7c4.9.9 5.3 2.9 5.3 28.5V209h7v-24.6c0-15-.4-25.3-1-26.5-.9-1.6-2.1-1.9-7.3-1.8-3.4.1-5.2.4-4 .6zM425.5 156.9c4.7 1 5.4 4.5 5.4 29.8l.1 22.3h7v-18.4l6 8.2c6.4 8.7 9.8 11.2 15.4 11.2 4.6 0 5.3-1.5 1.6-3-2.8-1.2-16-16.6-16-18.7 0-2 11.2-14.3 13.5-14.9 3.3-.8 3.2-2.4-.2-2.4-4.4 0-8.6 3.2-14.4 11.1l-5.4 7.2-.5-15c-.4-10.6-.9-15.5-1.9-16.6-1-1.3-2.9-1.7-7.5-1.6-4.4.1-5.3.3-3.1.8zM136.3 174.2c-6.7 2.9-12.1 5.4-11.9 5.5.5.6 4.9 1.4 7.9 1.5 2.1.1 2.7.5 2.2 1.7-.5 1.3-.4 1.4.6.3 1.7-1.6 5.4-1.5 6.8.2.9 1.1.9 1.5-.1 1.9-.9.4-.8.6.3.6.9.1 2.2 1.3 2.8 2.8.7 1.6 2.3 4.1 3.6 5.8l2.5 3v-14.3c0-10.7-.3-14.2-1.2-14.2-.7.1-6.8 2.4-13.5 5.2zM222 171c-2 .5-5 2.5-7.1 4.8-5.8 6.1-7.3 14-4.4 22.3 2.9 8 8.5 11.9 17.1 11.9 15.4 0 22.8-18.9 13.1-33.3-3.3-4.9-11.5-7.4-18.7-5.7zm11.2 6c4 4.3 5.4 12.4 3.3 19.8-2 6.9-4.8 10.2-8.7 10.2-4.4 0-6.8-1.7-8.9-6.3-2.2-4.9-2.4-14.3-.5-19.7 1.5-4.2 7-8.3 10-7.4 1.2.3 3.3 1.8 4.8 3.4zM265 171.2c-7.4 2.1-11.9 9.4-12 19.3 0 7 2.8 13.7 7.1 16.8 3.1 2.2 10.1 3.3 15.3 2.3 4.1-.8 9.6-5 9.6-7.4 0-1.3-.4-1.2-2.2.5-3.6 3.2-6.3 4.3-10.8 4.3-3.2 0-4.8-.6-7-2.8-7.1-7.1-6.1-23.8 1.7-28.9 5.7-3.8 13.5-1 15.9 5.8l1.2 3.4.1-4.6c.1-5.8-1.5-7.9-7-9-5.5-1-7.5-1-11.9.3zM378 171.1c-4.9 1-7 3-7 6.6 0 2.9 2.5 3 4 .2 1.7-3.1 7.2-5.1 10.8-3.8 3.5 1.2 5.4 4.4 5.6 9.6l.1 3.8-7.1.6c-11.3 1-15.4 4.1-15.4 11.4 0 2 .5 4.5 1 5.6 2.7 4.9 12.9 6.5 18.9 2.8 3.2-1.9 3.6-2 4.7-.5.6.9 2.1 1.6 3.3 1.6 2 0 2.1-.4 2.1-13.8 0-14.6-1.6-20.8-5.7-23-2.9-1.6-10.4-2.1-15.3-1.1zm14 25.4c0 4.6-.4 6-2.5 8-2.8 2.9-5.4 3.1-9.4 1-3-1.5-4.6-5.4-3.6-8.7 1-3 6.4-5.8 11.3-5.8h4.2v5.5zM289 171.4c0 .2 1.5 1.4 3.3 2.5 2 1.2 5.3 5.2 8.1 9.7l4.7 7.6-6.6 8.9c-5.4 7.4-6.1 8.9-4.5 8.9 1.4 0 3.8-2.4 7.1-7 2.8-3.9 5.3-7 5.4-7 .1 0 1.9 2.7 3.9 6 4.4 7.1 5.8 8 12.8 8l5.3-.1-3.4-1.8c-2.3-1.2-5-4.4-8.2-9.6l-4.8-7.8 6.5-9.4c5.3-7.6 6.1-9.3 4.6-9.3-1.3 0-3.7 2.6-7.1 7.5-2.9 4.1-5.4 7.5-5.6 7.5-.2 0-1.8-2.5-3.5-5.5-4.3-7.4-7.1-9.5-13.1-9.5-2.7 0-4.9.2-4.9.4z"/></svg>